<?xml version="1.0" encoding="UTF-8"?>
<svg id="Layer_2" data-name="Layer 2" xmlns="http://www.w3.org/2000/svg" viewBox="0 0 125.1 125.11">
  <defs>
    <style>
      .cls-1 {
        fill: #ffffffff;
      }
    </style>
  </defs>
  <g id="Layer_1-2" data-name="Layer 1">
    <g>
      <path class="cls-1" d="M63.55,57.45c1.63-.15,3.12-.51,4.47-1.08,1.36-.57,2.45-1.44,3.3-2.62s1.26-2.81,1.26-4.92c0-1.86-.39-3.37-1.17-4.51-.78-1.14-1.81-2-3.07-2.57s-2.66-.95-4.2-1.13c-1.54-.18-3.03-.27-4.47-.27h-9.84v17.34h8.85c1.63,0,3.25-.07,4.88-.23h-.01ZM56.19,46.71h3.47c1.19,0,2.44.08,3.72.23.88.1,1.66.31,2.32.61.17.08.29.16.4.31.03.09.1.39.1.98,0,.77-.09,1.16-.13,1.29-.12.15-.27.27-.53.38-.75.32-1.61.52-2.58.61-1.42.13-2.86.2-4.29.2h-2.48v-4.6h0Z"/>
      <path class="cls-1" d="M62.55,0C45.52,0,30.09,6.81,18.81,17.86h9.8c9.65-7.31,21.56-11.49,33.94-11.49,30.98,0,56.18,25.2,56.18,56.18,0,3.21-.28,6.39-.81,9.52h6.44c.48-3.11.74-6.28.74-9.52.01-34.54-28-62.55-62.55-62.55Z"/>
      <path class="cls-1" d="M6.37,62.55c0-3.2.27-6.36.81-9.48H.73c-.47,3.09-.73,6.26-.73,9.48,0,20.77,10.13,39.16,25.71,50.54v-8.1c-12.09-10.48-19.34-25.82-19.34-42.44Z"/>
      <path class="cls-1" d="M38.44,40.34H4.07c-.79,2.07-1.45,4.2-2.02,6.37h30.02v63.06h0v7.41c2.06,1.15,4.18,2.19,6.37,3.11v-25.77h0v-54.18Z"/>
      <path class="cls-1" d="M62.55,118.74v6.37c17.03,0,32.47-6.81,43.74-17.86h-9.8c-9.65,7.31-21.56,11.49-33.94,11.49Z"/>
      <path class="cls-1" d="M104.37,78.4h-12.52l3.83,6.37h25.35c.79-2.07,1.45-4.2,2.02-6.37h-18.68Z"/>
      <path class="cls-1" d="M88.14,100.89h9.81l-3.83-6.37h0l-5.87-9.75h0l-3.83-6.37h0l-.89-1.47h0l-4.27-7.1c2.45-1.32,4.56-3.07,6.33-5.22,3.5-4.29,5.28-9.56,5.28-15.68,0-4.7-.95-8.76-2.81-12.07-1.85-3.28-4.37-5.93-7.51-7.88-2.87-1.78-6.15-3.05-9.74-3.77-3.26-.65-6.67-.98-10.15-.98H13.14c-1.58,2.03-3.03,4.15-4.35,6.37h51.87c3.07,0,6.03.29,8.9.86,2.86.57,5.4,1.55,7.63,2.93,2.23,1.39,4,3.25,5.33,5.6,1.32,2.35,1.99,5.33,1.99,8.94,0,4.64-1.28,8.52-3.84,11.65-2.56,3.13-6.22,5.03-10.97,5.69l8.38,13.95h0l.45.75,2.28,3.8h0l5.87,9.75h-13.74l-14.81-27.09h-8.31v56.38c2.09.43,4.21.76,6.37.98v-47.62l12.97,23.72h18.98Z"/>
      <path class="cls-1" d="M105.39,100.89h6.58c1.58-2.03,3.03-4.15,4.35-6.37h-14.77l3.83,6.37h0Z"/>
    </g>
    <path class="cls-1" d="M109.15,107.57h2.82v.35h-1.19v2.84h-.42v-2.84h-1.2v-.35h-.01ZM115.7,110.76v-2.46l-1.32,2.07h-.19l-1.32-2.02v2.42h-.41v-3.19h.35l1.48,2.31,1.47-2.31h.34v3.19h-.4Z"/>
  </g>
</svg>