<?xml version="1.0" encoding="UTF-8"?>
<svg id="Layer_1" data-name="Layer 1" xmlns="http://www.w3.org/2000/svg" viewBox="0 0 241.53 241.54">
  <defs>
    <style>
      .cls-1 {
        fill: #fff;
      }

      .cls-2 {
        fill: #aa182c;
      }
    </style>
  </defs>
  <path class="cls-2" d="M121.27,239.11c65.07,0,117.84-52.77,117.84-117.84S186.34,3.43,121.27,3.43,3.43,56.19,3.43,121.27s52.76,117.84,117.84,117.84"/>
  <path class="cls-1" d="M170.37,34.38c-43.55-24.16-81.87,1.86-95.05,21.41-13.02,19.31-24.21,71.31,22.08,101.56l20.38-34.35c-19.97-15.6-16.23-36.22-6.33-47.47,9.57-10.88,23.63-13.29,38.51-6.42l20.4-34.72Z"/>
  <path class="cls-1" d="M144.64,78.93c42.29,26.3,38.22,72.44,27.55,93.45-10.54,20.78-50.53,55.86-99.47,30.13l20.08-34.52c23.34,9.86,39.54-3.45,44.55-17.57,4.85-13.65.12-27.11-13.12-36.77l20.4-34.71Z"/>
</svg>