<?xml version="1.0" encoding="UTF-8"?>
<svg id="Layer_1" data-name="Layer 1" xmlns="http://www.w3.org/2000/svg" viewBox="0 0 979.24 249.15">
  <defs>
    <style>
      .cls-1 {
        fill: #fff;
      }

      .cls-2 {
        fill: #231f20;
      }

      .cls-3 {
        fill: #aa182c;
      }
    </style>
  </defs>
  <path class="cls-2" d="M407.07,210.77c-14.47,0-25.14-11.39-25.14-25.87s10.6-26.01,25.36-26.01c9.1,0,14.55,3.22,19.56,7.95l-3.87,4.16c-4.23-4.01-8.96-6.87-15.76-6.87-11.11,0-19.42,8.95-19.42,20.63s8.39,20.78,19.42,20.78c6.88,0,11.4-2.65,16.2-7.24l3.73,3.66c-5.23,5.3-10.97,8.81-20.07,8.81"/>
  <path class="cls-2" d="M480.96,210.76c-15.26,0-25.51-11.97-25.51-25.86s10.39-26.01,25.65-26.01,25.5,11.97,25.5,25.87-10.39,26.01-25.65,26.01M480.96,164.12c-11.46,0-19.63,9.17-19.63,20.63s8.31,20.78,19.77,20.78,19.64-9.17,19.64-20.63-8.31-20.78-19.78-20.78"/>
  <polygon class="cls-2" points="540.67 159.75 546.33 159.75 546.33 204.67 574.57 204.67 574.57 209.91 540.67 209.91 540.67 159.75"/>
  <polygon class="cls-2" points="607.11 159.75 612.77 159.75 612.77 204.67 641 204.67 641 209.91 607.11 209.91 607.11 159.75"/>
  <polygon class="cls-2" points="709.81 164.91 679.22 164.91 679.22 182.03 706.58 182.03 706.58 187.2 679.22 187.2 679.22 204.75 710.17 204.75 710.17 209.91 673.55 209.91 673.55 159.75 709.81 159.75 709.81 164.91"/>
  <path class="cls-2" d="M766.94,210.77c-15.76,0-25.51-11.46-25.51-25.87s10.1-26.01,25.15-26.01c8.45,0,13.68,2.43,18.7,6.66l-3.66,4.3c-3.86-3.37-8.17-5.72-15.26-5.72-11.11,0-19.06,9.38-19.06,20.63,0,12.04,7.66,20.92,19.85,20.92,5.72,0,11.03-2.22,14.47-5.01v-12.47h-15.26v-5.09h20.71v19.99c-4.66,4.16-11.68,7.67-20.13,7.67"/>
  <polygon class="cls-2" points="858.17 164.91 827.57 164.91 827.57 182.03 854.94 182.03 854.94 187.2 827.57 187.2 827.57 204.75 858.52 204.75 858.52 209.91 821.91 209.91 821.91 159.75 858.17 159.75 858.17 164.91"/>
  <path class="cls-2" d="M324.47,81.43c20.82,5.07,31.65,12.52,31.65,28.98,0,18.56-14.49,29.54-35.17,29.54-15.05,0-29.26-5.2-41.07-15.75l10.41-12.38c9.43,8.16,18.85,12.8,31.09,12.8,10.69,0,17.44-4.92,17.44-12.52,0-7.17-3.94-10.97-22.23-15.19-20.96-5.07-32.78-11.25-32.78-29.54,0-17.16,14.07-28.7,33.62-28.7,14.35,0,25.75,4.36,35.73,12.38l-9.28,13.08c-8.86-6.61-17.72-10.12-26.73-10.12-10.12,0-16.03,5.2-16.03,11.82,0,7.74,4.5,11.11,23.35,15.61"/>
  <rect class="cls-2" x="377.5" y="40.06" width="17.3" height="98.48"/>
  <polygon class="cls-2" points="489.9 40.07 506.92 40.07 506.92 138.54 492.43 138.54 438.12 68.48 438.12 138.54 421.1 138.54 421.1 40.07 437.14 40.07 489.9 108.16 489.9 40.07"/>
  <path class="cls-2" d="M577.95,140.23c-28.7,0-50.08-22.37-50.08-50.79s20.96-51.07,50.79-51.07c18.15,0,29.12,6.33,38.54,15.33l-11.11,12.8c-7.88-7.32-16.31-12.24-27.57-12.24-18.85,0-32.49,15.48-32.49,34.89s13.65,35.17,32.49,35.17c12.1,0,19.84-4.92,28.28-12.8l11.12,11.25c-10.27,10.69-21.53,17.44-39.96,17.44"/>
  <polygon class="cls-2" points="635.62 40.07 652.93 40.07 652.93 122.79 704.7 122.79 704.7 138.54 635.62 138.54 635.62 40.07"/>
  <path class="cls-2" d="M816.95,138.54h-18.29l-9.98-23.77h-46.57l-10.13,23.77h-17.72l43.33-99.17h16.03l43.33,99.17ZM765.32,60.05l-16.88,39.39h33.9l-17.02-39.39Z"/>
  <rect class="cls-2" x="837.62" y="40.06" width="17.3" height="98.48"/>
  <path class="cls-2" d="M940.17,138.54l-24.19-34.32h-21.67v34.32h-17.3V40.07h43.89c22.65,0,36.57,11.96,36.57,31.23,0,16.32-9.71,26.16-23.49,29.96l26.59,37.28h-20.4ZM919.49,55.82h-25.18v33.06h25.31c12.38,0,20.26-6.47,20.26-16.59,0-10.84-7.6-16.46-20.4-16.46"/>
  <g>
    <path class="cls-3" d="M127.47,242.04c64.87,0,117.47-52.6,117.47-117.47S192.33,7.11,127.47,7.11,10,59.7,10,124.57s52.59,117.47,117.47,117.47"/>
    <path class="cls-1" d="M176.41,37.95c-43.42-24.09-81.62,1.85-94.75,21.34-12.98,19.25-24.13,71.09,22.01,101.24l20.32-34.24c-19.9-15.55-16.18-36.1-6.31-47.33,9.54-10.85,23.55-13.25,38.39-6.4l20.34-34.61Z"/>
    <path class="cls-1" d="M150.77,82.37c42.16,26.22,38.1,72.21,27.46,93.16-10.51,20.72-50.37,55.68-99.16,30.03l20.02-34.41c23.27,9.82,39.41-3.44,44.41-17.51,4.84-13.61.12-27.02-13.07-36.66l20.34-34.6Z"/>
  </g>
</svg>