<?xml version="1.0" encoding="UTF-8"?>
<svg id="Layer_1" data-name="Layer 1" xmlns="http://www.w3.org/2000/svg" viewBox="0 0 100 100">
  <defs>
    <style>
      .cls-1 {
        fill: #fff;
      }

      .cls-2 {
        fill: #1078ff;
      }
    </style>
  </defs>
  <path class="cls-2" d="M49.51,98.72c26.88,0,48.68-21.8,48.68-48.68S76.4,1.35,49.51,1.35.83,23.15.83,50.04s21.8,48.68,48.68,48.68"/>
  <path class="cls-1" d="M69.8,14.14c-17.99-9.98-33.82.77-39.27,8.85-5.38,7.98-10,29.46,9.12,41.96l8.42-14.19c-8.25-6.44-6.71-14.96-2.62-19.61,3.95-4.49,9.76-5.49,15.91-2.65l8.43-14.34h0Z"/>
  <path class="cls-1" d="M59.17,32.54c17.47,10.87,15.79,29.93,11.38,38.61-4.35,8.58-20.88,23.08-41.09,12.45l8.3-14.26c9.64,4.07,16.34-1.43,18.4-7.26,2-5.64.05-11.2-5.42-15.19l8.43-14.34h0Z"/>
</svg>